# Blender 4.0.2
# www.blender.org
mtllib railroad_hammer.mtl
o Cylinder
v 0.000000 -11.870001 -0.576000
v 0.000000 13.870001 -0.576000
v 0.230400 -11.870001 -0.498831
v 0.230400 13.870001 -0.498831
v 0.399065 -11.870001 -0.288000
v 0.399065 13.870001 -0.288000
v 0.460800 -11.870001 0.000000
v 0.460800 13.870001 0.000000
v 0.399065 -11.870001 0.288000
v 0.399065 13.870001 0.288000
v 0.230400 -11.870001 0.498831
v 0.230400 13.870001 0.498831
v 0.000000 -11.870001 0.576000
v 0.000000 13.870001 0.576000
v -0.230400 -11.870001 0.498831
v -0.230400 13.870001 0.498831
v -0.399065 -11.870001 0.288000
v -0.399065 13.870001 0.288000
v -0.460800 -11.870001 0.000000
v -0.460800 13.870001 0.000000
v -0.399065 -11.870001 -0.288000
v -0.399065 13.870001 -0.288000
v -0.230400 -11.870001 -0.498831
v -0.230400 13.870001 -0.498831
v 0.000000 -11.870001 -0.576000
v 0.230400 -11.870001 -0.498831
v 0.399065 -11.870001 -0.288000
v 0.460800 -11.870001 0.000000
v 0.399065 -11.870001 0.288000
v 0.230400 -11.870001 0.498831
v 0.000000 -11.870001 0.576000
v -0.230400 -11.870001 0.498831
v -0.399065 -11.870001 0.288000
v -0.460800 -11.870001 0.000000
v -0.399065 -11.870001 -0.288000
v -0.230400 -11.870001 -0.498831
v 0.000000 -11.870001 -0.576000
v 0.230400 -11.870001 -0.498831
v 0.399065 -11.870001 -0.288000
v 0.460800 -11.870001 0.000000
v 0.399065 -11.870001 0.288000
v 0.230400 -11.870001 0.498831
v 0.000000 -11.870001 0.576000
v -0.230400 -11.870001 0.498831
v -0.399065 -11.870001 0.288000
v -0.460800 -11.870001 0.000000
v -0.399065 -11.870001 -0.288000
v -0.230400 -11.870001 -0.498831
v 0.000000 -11.870001 -0.576000
v 0.230400 -11.870001 -0.498831
v 0.399065 -11.870001 -0.288000
v 0.460800 -11.870001 0.000000
v 0.399065 -11.870001 0.288000
v 0.230400 -11.870001 0.498831
v 0.000000 -11.870001 0.576000
v -0.230400 -11.870001 0.498831
v -0.399065 -11.870001 0.288000
v -0.460800 -11.870001 0.000000
v -0.399065 -11.870001 -0.288000
v -0.230400 -11.870001 -0.498831
v 0.000000 -11.870001 -0.576000
v 0.230400 -11.870001 -0.498831
v 0.399065 -11.870001 -0.288000
v 0.460800 -11.870001 0.000000
v 0.399065 -11.870001 0.288000
v 0.230400 -11.870001 0.498831
v 0.000000 -11.870001 0.576000
v -0.230400 -11.870001 0.498831
v -0.399065 -11.870001 0.288000
v -0.460800 -11.870001 0.000000
v -0.399065 -11.870001 -0.288000
v -0.230400 -11.870001 -0.498831
v 0.000000 -11.870001 -0.576000
v 0.230400 -11.870001 -0.498831
v 0.399065 -11.870001 -0.288000
v 0.460800 -11.870001 0.000000
v 0.399065 -11.870001 0.288000
v 0.230400 -11.870001 0.498831
v 0.000000 -11.870001 0.576000
v -0.230400 -11.870001 0.498831
v -0.399065 -11.870001 0.288000
v -0.460800 -11.870001 0.000000
v -0.399065 -11.870001 -0.288000
v -0.230400 -11.870001 -0.498831
v -0.000000 -12.070001 -0.460800
v 0.184320 -12.070001 -0.399065
v 0.319252 -12.070001 -0.230400
v 0.368640 -12.070001 0.000000
v 0.319252 -12.070001 0.230400
v 0.184320 -12.070001 0.399065
v -0.000000 -12.070001 0.460800
v -0.184320 -12.070001 0.399065
v -0.319252 -12.070001 0.230400
v -0.368640 -12.070001 0.000000
v -0.319252 -12.070001 -0.230400
v -0.184320 -12.070001 -0.399065
v 0.000000 -12.170001 -0.230400
v 0.092160 -12.170001 -0.199532
v 0.159626 -12.170001 -0.115200
v 0.184320 -12.170001 -0.000000
v 0.159626 -12.170001 0.115200
v 0.092160 -12.170001 0.199532
v 0.000000 -12.170001 0.230400
v -0.092160 -12.170001 0.199532
v -0.159626 -12.170001 0.115200
v -0.184320 -12.170001 -0.000000
v -0.159626 -12.170001 -0.115200
v -0.092160 -12.170001 -0.199532
vn -0.0000 0.0463 -0.9989
vn -0.0000 0.0386 -0.9993
vn 0.5848 0.0361 -0.8104
vn 0.5847 0.0433 -0.8101
vn 0.9074 0.0324 -0.4191
vn 0.9072 0.0388 -0.4190
vn 0.9995 0.0309 -0.0000
vn 0.9993 0.0370 -0.0000
vn 0.9074 0.0324 0.4191
vn 0.9072 0.0388 0.4190
vn 0.5848 0.0361 0.8104
vn 0.5847 0.0433 0.8101
vn -0.0000 0.0386 0.9993
vn -0.0000 0.0463 0.9989
vn -0.5848 0.0361 0.8104
vn -0.5847 0.0433 0.8101
vn -0.9074 0.0324 0.4191
vn -0.9072 0.0388 0.4190
vn -0.9995 0.0309 -0.0000
vn -0.9993 0.0370 -0.0000
vn -0.9074 0.0324 -0.4191
vn -0.9072 0.0388 -0.4190
vn -0.5848 0.0361 -0.8104
vn -0.5847 0.0433 -0.8101
vn -0.0000 1.0000 -0.0000
vn 0.5817 0.1089 -0.8061
vn -0.0000 0.1162 -0.9932
vn -0.9035 0.0977 -0.4173
vn -0.5817 0.1089 -0.8061
vn -0.4603 -0.6176 -0.6378
vn -0.7426 -0.5753 -0.3430
vn -0.9035 0.0977 0.4173
vn -0.5817 0.1089 0.8061
vn 0.5817 0.1089 0.8061
vn 0.9035 0.0977 0.4173
vn 0.9035 0.0977 -0.4173
vn -0.9956 0.0932 -0.0000
vn -0.0000 0.1162 0.9932
vn 0.9956 0.0932 -0.0000
vn 0.7426 -0.5753 0.3430
vn 0.4603 -0.6176 0.6378
vn 0.1527 -0.9653 0.2116
vn 0.2624 -0.9573 0.1212
vn 0.4603 -0.6176 -0.6378
vn -0.0000 -0.6426 -0.7662
vn -0.7426 -0.5753 0.3430
vn -0.4603 -0.6176 0.6378
vn 0.7426 -0.5753 -0.3430
vn -0.8304 -0.5571 -0.0000
vn -0.0000 -0.6426 0.7662
vn 0.8304 -0.5571 -0.0000
vn -0.0000 -0.9694 -0.2454
vn 0.1527 -0.9653 -0.2116
vn 0.2624 -0.9573 -0.1212
vn 0.3017 -0.9534 -0.0000
vn -0.0000 -0.9694 0.2454
vn -0.1527 -0.9653 0.2116
vn -0.2624 -0.9573 0.1212
vn -0.3017 -0.9534 -0.0000
vn -0.2624 -0.9573 -0.1212
vn -0.1527 -0.9653 -0.2116
vt 1.000000 0.500000
vt 1.000000 1.000000
vt 0.916667 1.000000
vt 0.916667 0.500000
vt 0.833333 1.000000
vt 0.833333 0.500000
vt 0.750000 1.000000
vt 0.750000 0.500000
vt 0.666667 1.000000
vt 0.666667 0.500000
vt 0.583333 1.000000
vt 0.583333 0.500000
vt 0.500000 1.000000
vt 0.500000 0.500000
vt 0.416667 1.000000
vt 0.416667 0.500000
vt 0.333333 1.000000
vt 0.333333 0.500000
vt 0.250000 1.000000
vt 0.250000 0.500000
vt 0.166667 1.000000
vt 0.166667 0.500000
vt 0.370000 0.457846
vt 0.250000 0.490000
vt 0.130000 0.457846
vt 0.042154 0.370000
vt 0.010000 0.250000
vt 0.042154 0.130000
vt 0.130000 0.042154
vt 0.250000 0.010000
vt 0.370000 0.042154
vt 0.457846 0.130000
vt 0.490000 0.250000
vt 0.457846 0.370000
vt 0.083333 1.000000
vt 0.083333 0.500000
vt 0.000000 1.000000
vt 0.000000 0.500000
vt 0.750000 0.490000
vt 0.870000 0.457846
vt 0.957846 0.370000
vt 0.990000 0.250000
vt 0.957846 0.130000
vt 0.870000 0.042154
vt 0.750000 0.010000
vt 0.630000 0.042154
vt 0.542154 0.130000
vt 0.510000 0.250000
vt 0.542154 0.370000
vt 0.630000 0.457846
s 1
f 1/1/1 2/2/2 4/3/3 3/4/4
f 3/4/4 4/3/3 6/5/5 5/6/6
f 5/6/6 6/5/5 8/7/7 7/8/8
f 7/8/8 8/7/7 10/9/9 9/10/10
f 9/10/10 10/9/9 12/11/11 11/12/12
f 11/12/12 12/11/11 14/13/13 13/14/14
f 13/14/14 14/13/13 16/15/15 15/16/16
f 15/16/16 16/15/15 18/17/17 17/18/18
f 17/18/18 18/17/17 20/19/19 19/20/20
f 19/20/20 20/19/19 22/21/21 21/22/22
f 4/23/3 2/24/2 24/25/23 22/26/21 20/27/19 18/28/17 16/29/15 14/30/13 12/31/11 10/32/9 8/33/7 6/34/5
f 21/22/22 22/21/21 24/35/23 23/36/24
f 23/36/24 24/35/23 2/37/2 1/38/1
f 9/10/10 11/12/12 30/12/25 29/10/25
f 29/10/25 30/12/25 42/12/25 41/10/25
f 7/8/8 9/10/10 29/10/25 28/8/25
f 23/36/24 1/38/1 25/38/25 36/36/25
f 1/1/1 3/4/4 26/4/25 25/1/25
f 5/6/6 7/8/8 28/8/25 27/6/25
f 21/22/22 23/36/24 36/36/25 35/22/25
f 3/4/4 5/6/6 27/6/25 26/4/25
f 19/20/20 21/22/22 35/22/25 34/20/25
f 17/18/18 19/20/20 34/20/25 33/18/25
f 15/16/16 17/18/18 33/18/25 32/16/25
f 13/14/14 15/16/16 32/16/25 31/14/25
f 11/12/12 13/14/14 31/14/25 30/12/25
f 41/10/25 42/12/25 54/12/25 53/10/25
f 36/36/25 25/38/25 37/38/25 48/36/25
f 26/4/25 27/6/25 39/6/25 38/4/25
f 33/18/25 34/20/25 46/20/25 45/18/25
f 30/12/25 31/14/25 43/14/25 42/12/25
f 27/6/25 28/8/25 40/8/25 39/6/25
f 34/20/25 35/22/25 47/22/25 46/20/25
f 31/14/25 32/16/25 44/16/25 43/14/25
f 28/8/25 29/10/25 41/10/25 40/8/25
f 35/22/25 36/36/25 48/36/25 47/22/25
f 25/1/25 26/4/25 38/4/25 37/1/25
f 32/16/25 33/18/25 45/18/25 44/16/25
f 56/16/25 57/18/25 69/18/25 68/16/25
f 48/36/25 37/38/25 49/38/25 60/36/25
f 38/4/25 39/6/25 51/6/25 50/4/25
f 45/18/25 46/20/25 58/20/25 57/18/25
f 42/12/25 43/14/25 55/14/25 54/12/25
f 39/6/25 40/8/25 52/8/25 51/6/25
f 46/20/25 47/22/25 59/22/25 58/20/25
f 43/14/25 44/16/25 56/16/25 55/14/25
f 40/8/25 41/10/25 53/10/25 52/8/25
f 47/22/25 48/36/25 60/36/25 59/22/25
f 37/1/25 38/4/25 50/4/25 49/1/25
f 44/16/25 45/18/25 57/18/25 56/16/25
f 61/1/25 62/4/25 74/4/26 73/1/27
f 53/10/25 54/12/25 66/12/25 65/10/25
f 60/36/25 49/38/25 61/38/25 72/36/25
f 50/4/25 51/6/25 63/6/25 62/4/25
f 57/18/25 58/20/25 70/20/25 69/18/25
f 54/12/25 55/14/25 67/14/25 66/12/25
f 51/6/25 52/8/25 64/8/25 63/6/25
f 58/20/25 59/22/25 71/22/25 70/20/25
f 55/14/25 56/16/25 68/16/25 67/14/25
f 52/8/25 53/10/25 65/10/25 64/8/25
f 59/22/25 60/36/25 72/36/25 71/22/25
f 49/1/25 50/4/25 62/4/25 61/1/25
f 83/22/28 84/36/29 96/36/30 95/22/31
f 68/16/25 69/18/25 81/18/32 80/16/33
f 65/10/25 66/12/25 78/12/34 77/10/35
f 72/36/25 61/38/25 73/38/27 84/36/29
f 62/4/25 63/6/25 75/6/36 74/4/26
f 69/18/25 70/20/25 82/20/37 81/18/32
f 66/12/25 67/14/25 79/14/38 78/12/34
f 63/6/25 64/8/25 76/8/39 75/6/36
f 70/20/25 71/22/25 83/22/28 82/20/37
f 67/14/25 68/16/25 80/16/33 79/14/38
f 64/8/25 65/10/25 77/10/35 76/8/39
f 71/22/25 72/36/25 84/36/29 83/22/28
f 89/10/40 90/12/41 102/12/42 101/10/43
f 73/1/27 74/4/26 86/4/44 85/1/45
f 80/16/33 81/18/32 93/18/46 92/16/47
f 77/10/35 78/12/34 90/12/41 89/10/40
f 84/36/29 73/38/27 85/38/45 96/36/30
f 74/4/26 75/6/36 87/6/48 86/4/44
f 81/18/32 82/20/37 94/20/49 93/18/46
f 78/12/34 79/14/38 91/14/50 90/12/41
f 75/6/36 76/8/39 88/8/51 87/6/48
f 82/20/37 83/22/28 95/22/31 94/20/49
f 79/14/38 80/16/33 92/16/47 91/14/50
f 76/8/39 77/10/35 89/10/40 88/8/51
f 97/39/52 98/40/53 99/41/54 100/42/55 101/43/43 102/44/42 103/45/56 104/46/57 105/47/58 106/48/59 107/49/60 108/50/61
f 96/36/30 85/38/45 97/38/52 108/36/61
f 86/4/44 87/6/48 99/6/54 98/4/53
f 93/18/46 94/20/49 106/20/59 105/18/58
f 90/12/41 91/14/50 103/14/56 102/12/42
f 87/6/48 88/8/51 100/8/55 99/6/54
f 94/20/49 95/22/31 107/22/60 106/20/59
f 91/14/50 92/16/47 104/16/57 103/14/56
f 88/8/51 89/10/40 101/10/43 100/8/55
f 95/22/31 96/36/30 108/36/61 107/22/60
f 85/1/45 86/4/44 98/4/53 97/1/52
f 92/16/47 93/18/46 105/18/58 104/16/57
o Cube
v -0.431200 13.793066 2.106667
v -0.284174 13.568799 2.106667
v -0.284174 14.431199 2.106667
v -0.431200 14.206932 2.106667
v -0.539000 13.670921 -1.850000
v -0.397329 13.460999 -1.850000
v -0.397329 14.539000 -1.850000
v -0.539000 14.329078 -1.850000
v 0.284174 13.568799 2.106667
v 0.431200 13.793066 2.106667
v 0.431200 14.206932 2.106667
v 0.284174 14.431199 2.106667
v 0.397329 13.460999 -1.850000
v 0.539000 13.670921 -1.850000
v 0.539000 14.329078 -1.850000
v 0.397329 14.539000 -1.850000
v -0.652049 13.325734 0.375806
v -0.666218 13.307122 -0.388180
v -0.527106 13.089211 -0.358003
v -0.508065 13.095030 0.351962
v -0.666218 14.692877 -0.388180
v -0.652049 14.674265 0.375806
v -0.508065 14.904970 0.351962
v -0.527106 14.910789 -0.358003
v 0.666218 13.307122 -0.388180
v 0.652049 13.325734 0.375806
v 0.508065 13.095030 0.351962
v 0.527106 13.089211 -0.358003
v 0.652049 14.674265 0.375806
v 0.666218 14.692877 -0.388180
v 0.527106 14.910789 -0.358003
v 0.508065 14.904970 0.351962
v -0.539000 14.329459 -4.750000
v -0.397393 14.539000 -4.750000
v -0.399000 14.339000 -5.150000
v -0.539000 13.670540 -4.750000
v -0.399000 13.660999 -5.150000
v -0.397393 13.460999 -4.750000
v 0.397393 13.460999 -4.750000
v 0.399000 13.660999 -5.150000
v 0.539000 13.670540 -4.750000
v 0.397393 14.539000 -4.750000
v 0.539000 14.329459 -4.750000
v 0.399000 14.339000 -5.150000
v -0.291200 13.568799 2.106667
v -0.431200 13.768800 2.106667
v -0.431200 14.231199 2.106667
v -0.291200 14.431199 2.106667
v 0.431200 13.768800 2.106667
v 0.291200 13.568799 2.106667
v 0.291200 14.431199 2.106667
v 0.431200 14.231199 2.106667
v -0.291200 13.568799 4.576667
v -0.431200 13.768800 4.576667
v -0.431200 14.231199 4.576667
v -0.291200 14.431199 4.576667
v 0.291200 14.431199 4.576667
v 0.431200 14.231199 4.576667
v 0.431200 13.768800 4.576667
v 0.291200 13.568799 4.576667
v -0.431200 13.768800 5.276667
v -0.291200 13.568799 5.276667
v -0.291200 13.768800 5.676667
v -0.431200 14.231199 5.276667
v -0.291200 14.231199 5.676667
v -0.291200 14.431199 5.276667
v 0.431200 14.231199 5.276667
v 0.291200 14.431199 5.276667
v 0.291200 14.231199 5.676667
v 0.431200 13.768800 5.276667
v 0.291200 13.768800 5.676667
v 0.291200 13.568799 5.276667
vn 0.5100 -0.8506 -0.1280
vn -0.5100 -0.8506 -0.1280
vn -0.4881 -0.8568 -0.1667
vn 0.4881 -0.8568 -0.1667
vn -0.6634 -0.4633 -0.5877
vn -0.6634 0.4633 -0.5877
vn 0.6634 0.4633 -0.5877
vn 0.6634 -0.4633 -0.5877
vn 0.9687 -0.2384 -0.0696
vn 0.9687 0.2384 -0.0696
vn 0.9550 0.2900 -0.0628
vn 0.9550 -0.2900 -0.0628
vn 0.5270 0.8390 0.1353
vn -0.5270 0.8390 0.1353
vn -0.4721 0.8341 0.2854
vn 0.4721 0.8341 0.2854
vn -0.9687 -0.2384 -0.0696
vn -0.9687 0.2384 -0.0696
vn -0.9586 0.2536 -0.1296
vn -0.9586 -0.2536 -0.1296
vn -0.5100 0.8506 -0.1280
vn 0.5100 0.8506 -0.1280
vn 0.4881 0.8568 -0.1667
vn -0.4881 0.8568 -0.1667
vn -0.9550 -0.2900 -0.0628
vn -0.9550 0.2900 -0.0628
vn 0.9586 -0.2536 -0.1296
vn 0.9586 0.2536 -0.1296
vn -0.5270 -0.8390 0.1353
vn 0.5270 -0.8390 0.1353
vn 0.4721 -0.8341 0.2854
vn -0.4721 -0.8341 0.2854
vn -0.9604 0.2785 -0.0000
vn -0.9604 -0.2785 -0.0000
vn -0.5387 0.8368 -0.0982
vn 0.5387 0.8368 -0.0982
vn 0.9548 -0.2787 0.1033
vn 0.9548 0.2787 0.1033
vn 0.9635 0.2007 0.1771
vn 0.9635 -0.2007 0.1771
vn 0.5387 -0.8368 -0.0982
vn -0.5387 -0.8368 -0.0982
vn 0.5093 0.8606 -0.0000
vn -0.5093 0.8606 -0.0000
vn 0.9604 -0.2785 -0.0000
vn 0.9604 0.2785 -0.0000
vn 0.9564 0.2612 0.1306
vn 0.9564 -0.2612 0.1306
vn -0.9564 -0.2612 0.1306
vn -0.9564 0.2612 0.1306
vn -0.5093 -0.8606 -0.0000
vn 0.5093 -0.8606 -0.0000
vn 0.6601 -0.4621 0.5922
vn 0.6601 0.4621 0.5922
vn -0.6601 0.4621 0.5922
vn -0.6601 -0.4621 0.5922
vn -0.4799 0.8611 0.1680
vn 0.4799 0.8611 0.1680
vn 0.4799 -0.8611 0.1680
vn -0.4799 -0.8611 0.1680
vn -0.9548 -0.2787 0.1033
vn -0.9548 0.2787 0.1033
vn -0.9635 -0.2007 0.1771
vn -0.9635 0.2007 0.1771
vt 0.342145 0.500000
vt 0.157855 0.500000
vt 0.157840 0.500000
vt 0.342160 0.500000
vt 0.421382 0.282468
vt 0.578618 0.282468
vt 0.578618 0.467532
vt 0.421382 0.467532
vt 0.423683 0.500000
vt 0.576317 0.500000
vt 0.595600 0.598772
vt 0.404400 0.598772
vt 0.653756 0.645884
vt 0.846244 0.645884
vt 0.832379 0.750000
vt 0.667621 0.750000
vt 0.423683 0.250000
vt 0.576317 0.250000
vt 0.576405 0.250000
vt 0.423595 0.250000
vt 0.842145 0.500000
vt 0.657855 0.500000
vt 0.657840 0.500000
vt 0.842160 0.500000
vt 0.404400 0.151228
vt 0.595600 0.151228
vt 0.423595 0.500000
vt 0.576405 0.500000
vt 0.153756 0.645884
vt 0.346244 0.645884
vt 0.332379 0.750000
vt 0.167621 0.750000
vt 0.567022 0.000000
vt 0.432978 0.000000
vt 0.432978 0.000000
vt 0.567022 0.000000
vt 0.848094 0.600811
vt 0.651906 0.600811
vt 0.406837 0.647299
vt 0.593163 0.647299
vt 0.559988 0.750000
vt 0.440012 0.750000
vt 0.348094 0.600811
vt 0.151906 0.600811
vt 0.665584 0.750000
vt 0.834416 0.750000
vt 0.665584 0.750000
vt 0.432978 0.750000
vt 0.567022 0.750000
vt 0.567022 0.750000
vt 0.165584 0.750000
vt 0.334416 0.750000
vt 0.334416 0.750000
vt 0.165584 0.750000
vt 0.432978 0.790584
vt 0.567022 0.790584
vt 0.567022 0.959416
vt 0.432978 0.959416
vt 0.834416 0.750000
vt 0.334416 0.750000
vt 0.133563 0.625000
vt 0.125000 0.587957
vt 0.159274 0.625000
vt 0.584283 0.125000
vt 0.613121 0.125000
vt 0.625000 0.154382
vt 0.625000 0.250000
vt 0.578618 0.250000
vt 0.125000 0.500000
vt 0.157468 0.500000
vt 0.342532 0.500000
vt 0.375000 0.500000
vt 0.625000 0.467160
vt 0.125000 0.750000
vt 0.567022 1.000000
vt 0.625000 0.959416
vt 0.625000 0.790584
vt 0.375000 0.750000
vt 0.125000 0.657387
vt 0.625000 0.000000
vt 0.625000 0.097737
vt 0.593163 0.102701
vt 0.559988 0.000000
vt 0.406837 0.102701
vt 0.625000 0.282840
vt 0.875000 0.750000
vt 0.432978 1.000000
vt 0.440012 0.000000
s 1
f 121/51/62 114/52/63 146/53/64 147/54/65
f 145/55/66 143/56/67 152/57/68 148/58/69
f 122/59/70 123/60/71 138/61/72 133/62/73
f 140/63/74 131/64/75 111/65/76 120/66/77
f 113/67/78 116/68/79 141/69/80 144/70/81
f 115/71/82 124/72/83 150/73/84 142/74/85
f 126/75/86 129/76/87 116/68/79 113/67/78
f 123/60/71 122/59/70 149/77/88 151/78/89
f 128/79/90 135/80/91 117/81/92 110/82/93
f 155/83/94 154/84/95 162/85/95 163/86/94
f 124/72/83 115/71/82 132/87/96 139/88/97
f 134/89/98 137/90/99 119/91/100 118/92/101
f 114/52/63 121/51/62 136/93/102 127/94/103
f 159/95/104 156/96/105 164/96/105 165/97/104
f 167/98/106 166/99/107 175/100/108 178/98/109
f 157/98/106 160/99/107 166/99/107 167/98/106
f 163/86/94 162/85/95 169/85/110 172/83/111
f 153/101/112 158/102/113 168/103/113 161/104/112
f 179/105/114 177/106/115 173/107/116 171/108/117
f 165/97/104 164/96/105 174/109/118 176/97/119
f 161/104/112 168/103/113 180/110/120 170/101/121
f 125/111/122 126/112/86 127/94/103 128/113/90
f 129/76/87 130/114/123 131/115/75 132/116/96
f 133/62/73 134/89/98 135/80/91 136/93/102
f 137/90/99 138/61/72 139/88/97 140/63/74
f 141/69/80 142/117/85 143/118/67
f 144/119/81 145/120/66 146/53/64
f 147/54/65 148/121/69 149/122/88
f 150/123/84 151/78/89 152/57/68
f 169/124/110 170/101/121 171/104/117
f 172/125/111 173/107/116 174/126/118
f 175/100/108 176/127/119 177/106/115
f 178/128/109 179/102/114 180/110/120
f 128/79/90 110/82/93 109/124/124 125/129/122
f 132/116/96 115/117/82 116/68/79 129/76/87
f 136/93/102 121/51/62 122/59/70 133/62/73
f 140/63/74 120/66/77 119/91/100 137/90/99
f 114/52/63 127/94/103 126/112/86 113/119/78
f 111/130/76 131/131/75 130/132/123 112/133/125
f 117/81/92 135/80/91 134/89/98 118/92/101
f 124/72/83 139/88/97 138/61/72 123/60/71
f 131/64/75 140/63/74 139/88/97 132/87/96
f 135/80/91 128/79/90 127/94/103 136/93/102
f 137/90/99 134/89/98 133/62/73 138/61/72
f 129/76/87 126/75/86 125/134/122 130/132/123
f 143/56/67 145/55/66 144/70/81 141/69/80
f 147/54/65 146/53/64 145/120/66 148/121/69
f 142/135/85 150/123/84 152/57/68 143/56/67
f 151/78/89 149/77/88 148/58/69 152/57/68
f 121/51/62 147/54/65 149/77/88 122/59/70
f 150/73/84 124/72/83 123/60/71 151/78/89
f 113/119/78 144/119/81 146/53/64 114/52/63
f 141/69/80 116/68/79 115/117/82 142/117/85
f 157/98/106 167/98/106 168/103/113 158/102/113
f 162/124/95 154/124/95 153/101/112 161/104/112
f 155/136/94 163/136/94 164/96/105 156/96/105
f 166/99/107 160/99/107 159/95/104 165/97/104
f 171/108/117 173/107/116 172/125/111 169/137/110
f 177/106/115 179/105/114 178/98/109 175/100/108
f 170/101/121 180/110/120 179/102/114 171/104/117
f 176/127/119 174/126/118 173/107/116 177/106/115
f 163/136/94 172/136/111 174/109/118 164/96/105
f 175/100/108 166/99/107 165/97/104 176/97/119
f 180/110/120 168/103/113 167/98/106 178/98/109
f 169/124/110 162/124/95 161/104/112 170/101/121
f 109/138/124 112/133/125 130/132/123 125/134/122
